<?xml version="1.0" encoding="utf-8"?>
<!-- Generator: Adobe Illustrator 22.0.1, SVG Export Plug-In . SVG Version: 6.00 Build 0)  -->
<svg version="1.1" id="Layer_1" xmlns="http://www.w3.org/2000/svg" xmlns:xlink="http://www.w3.org/1999/xlink" x="0px" y="0px"
	 viewBox="0 0 24 24" style="enable-background:new 0 0 24 24;" xml:space="preserve">
<style type="text/css">
	.st0{fill:#FFFFFF;}
</style>
<path class="st0" d="M12,0C5.4,0,0,5.4,0,12s5.4,12,12,12s12-5.4,12-12S18.6,0,12,0z M6.5,11.7V9.2c0-0.6,0.5-1,1-1s1,0.5,1,1v2.5
	c0,0.6-0.5,1-1,1S6.5,12.3,6.5,11.7z M16.6,15.9c0,0.1-1,2.8-4.6,2.8c-3.6,0-4.5-2.7-4.6-2.8C7.3,15.5,7.6,15,8,14.8
	c0.4-0.2,0.9,0.1,1.1,0.5c0,0.1,0.6,1.7,3,1.7c2.4,0,3-1.7,3-1.7c0.2-0.4,0.6-0.7,1.1-0.5C16.5,15,16.8,15.4,16.6,15.9z M17.5,11.7
	c0,0.6-0.5,1-1,1c-0.6,0-1-0.5-1-1V9.2c0-0.6,0.5-1,1-1c0.6,0,1,0.5,1,1V11.7z"/>
</svg>
