<?xml version="1.0" encoding="utf-8"?>
<!-- Generator: Adobe Illustrator 22.0.1, SVG Export Plug-In . SVG Version: 6.00 Build 0)  -->
<svg version="1.1" id="Layer_1" xmlns="http://www.w3.org/2000/svg" xmlns:xlink="http://www.w3.org/1999/xlink" x="0px" y="0px"
	 viewBox="0 0 24 24" style="enable-background:new 0 0 24 24;" xml:space="preserve">
<g>
	<path d="M14,3.2h-4c-0.9,0-1.6-0.7-1.6-1.6v0C8.4,0.7,9.1,0,10,0h4c0.9,0,1.6,0.7,1.6,1.6v0C15.6,2.5,14.9,3.2,14,3.2z"/>
	<path d="M19.6,1.6H17v1v1c0,0.4-0.4,0.7-0.8,0.7H15H9H7.8C7.3,4.4,7,4.1,7,3.7v-1v-1H4.4c-1.1,0-2,0.8-2,1.8v18.8
		c0,1,0.9,1.8,2,1.8h15.1c1.1,0,2-0.8,2-1.8V3.4C21.6,2.4,20.7,1.6,19.6,1.6z M6.8,21.6c-0.9,0-1.6-0.7-1.6-1.6
		c0-0.9,0.7-1.6,1.6-1.6s1.6,0.7,1.6,1.6C8.4,20.9,7.7,21.6,6.8,21.6z M6.8,16.2l-2.4-2.4l1.2-1.2l1.2,1.2L9,11.6l1.2,1.2L6.8,16.2z
		 M6.8,10.6L4.4,8.2L5.6,7l1.2,1.2L9,6l1.2,1.2L6.8,10.6z M18.8,21.2h-7.2v-2h7.2V21.2z M18.8,15.6h-7.2v-2h7.2V15.6z M18.8,10h-7.2
		V8h7.2V10z"/>
</g>
</svg>
